# xmcd
#
# Track frame offsets: 
#        150
#        13807
#        25537
#        35817
#        50282
#        62860
#        76275
#        91987
#        103760
#        112512
#        122907
#        137052
#
# Disc length: 1999 seconds
#
# Revision: 3
# Processed by: cddbd v1.5PL3 Copyright (c) Steve Scherf et al.
# Submitted via: ExactAudioCopy v0.90b4
#
DISCID=9507cd0c
DTITLE=Various Artist - soundtrack - The Golden Western Melodies
DYEAR=1994
DGENRE=Country
TTITLE0=Harmonica - Harmonika
TTITLE1=Everybody's Talkin' - Kazdy Mluvi
TTITLE2=The Magnificient Seven - Sedm Statecnych
TTITLE3=High Noon - V Prave Poledne
TTITLE4=The Good, The Bad And The Ugly - Hodny, Zly A Osklivy
TTITLE5=Vinnetou
TTITLE6=Once Upon A Time In The West - Tenkrat Na Zapade
TTITLE7=Raindrops Keep Falling On My Head - Kapky Deste Mi Padaji Na H
TTITLE7=lavu
TTITLE8=Rollin' On - Bezi Dal
TTITLE9=The Big Country - Velka Zeme
TTITLE10=Der Schatz Im Silbersee - Poklad Na Stribrnem Jezere
TTITLE11=Exodus
EXTD=
EXTT0=
EXTT1=
EXTT2=
EXTT3=
EXTT4=
EXTT5=
EXTT6=
EXTT7=
EXTT8=
EXTT9=
EXTT10=
EXTT11=
PLAYORDER=
